<svg class="icon" style="width: 1em; height: 1em;vertical-align: middle;fill: currentColor;overflow: hidden;" viewBox="0 0 1024 1024" version="1.1" xmlns="http://www.w3.org/2000/svg"><path d="M512 597.333333a85.333333 85.333333 0 0 1 85.333333 85.333334 85.333333 85.333333 0 0 1-85.333333 85.333333 85.333333 85.333333 0 0 1-85.333333-85.333333 85.333333 85.333333 0 0 1 85.333333-85.333334m488.96-219.306666l-67.84 293.973333L640 604.16l162.133333-101.546667A340.138667 340.138667 0 0 0 512 341.333333c-168.533333 0-308.48 122.026667-336.213333 282.88l-84.053334-14.933333C126.293333 408.746667 301.226667 256 512 256c152.746667 0 287.146667 80.64 362.666667 201.386667l126.293333-79.36z" fill="" /></svg>